<svg viewBox="0 0 15.1777 11" xmlns="http://www.w3.org/2000/svg" xmlns:xlink="http://www.w3.org/1999/xlink" width="15.177734" height="11.000000" fill="none" customFrame="#000000">
	<g id="bxl-youtube">
		<path id="Shape" d="M14.8688 1.72945C14.6944 1.05589 14.1825 0.524413 13.5326 0.343069C12.345 0.00550127 7.5939 5.96304e-06 7.5939 5.96304e-06C7.5939 5.96304e-06 2.84358 -0.00548932 1.65524 0.317162C1.01823 0.496937 0.491929 1.04018 0.315991 1.71296C0.00279149 2.94234 -0.000243031 5.49215 -0.000243031 5.49215C-0.000243031 5.49215 -0.00327536 8.05452 0.307649 9.27133C0.48207 9.94411 0.993958 10.4756 1.64462 10.6569C2.84434 10.9945 7.58252 11 7.58252 11C7.58252 11 12.3336 11.0055 13.5212 10.6836C14.1703 10.5031 14.6845 9.97238 14.8612 9.2996C15.1751 8.07101 15.1774 5.52198 15.1774 5.52198C15.1774 5.52198 15.1926 2.95882 14.8688 1.72945ZM6.07795 3.14409L6.07416 7.85434L10.0267 5.50314L6.07795 3.14409Z" fill="rgb(255,255,255)" fill-rule="evenodd" />
	</g>
</svg>
