<svg viewBox="0 0 10.145 10.6946" xmlns="http://www.w3.org/2000/svg" xmlns:xlink="http://www.w3.org/1999/xlink" width="10.145020" height="10.694580" fill="none" customFrame="#000000">
	<g id="16px-logo-instagram">
		<path id="Oval" d="M7.70099 3.24332C8.03717 3.24332 8.3097 2.95603 8.3097 2.60164C8.3097 2.24725 8.03717 1.95996 7.70099 1.95996C7.36481 1.95996 7.09229 2.24725 7.09229 2.60164C7.09229 2.95603 7.36481 3.24332 7.70099 3.24332Z" fill="rgb(255,255,255)" fill-rule="nonzero" />
		<path id="Shape" d="M2.53638 5.3475C2.53638 6.82203 3.6739 8.02117 5.07265 8.02117C6.47141 8.02117 7.60893 6.82203 7.60893 5.3475C7.60893 3.87297 6.47141 2.67383 5.07265 2.67383C3.6739 2.67383 2.53638 3.87297 2.53638 5.3475ZM3.80445 5.34743C3.80445 4.61017 4.37321 4.0106 5.07259 4.0106C5.77197 4.0106 6.34073 4.61017 6.34073 5.34743C6.34073 6.0847 5.77197 6.68427 5.07259 6.68427C4.37321 6.68427 3.80445 6.0847 3.80445 5.34743Z" fill="rgb(255,255,255)" fill-rule="evenodd" />
		<path id="Shape" d="M2.53627 10.6947L7.60882 10.6947C8.91247 10.6947 10.1451 9.39528 10.1451 8.02101L10.1451 2.67367C10.1451 1.2994 8.91247 0 7.60882 0L2.53627 0C1.23263 0 0 1.2994 0 2.67367L0 8.02101C0 9.39528 1.23263 10.6947 2.53627 10.6947ZM1.26816 2.67376C1.26816 2.04879 1.94344 1.33693 2.5363 1.33693L7.60885 1.33693C8.2017 1.33693 8.87698 2.04879 8.87698 2.67376L8.87698 8.02111C8.87698 8.64608 8.2017 9.35794 7.60885 9.35794L2.5363 9.35794C1.93203 9.35794 1.26816 8.65811 1.26816 8.02111L1.26816 2.67376Z" fill="rgb(255,255,255)" fill-rule="evenodd" />
	</g>
</svg>
