<svg viewBox="0 0 12.4863 9.04932" xmlns="http://www.w3.org/2000/svg" xmlns:xlink="http://www.w3.org/1999/xlink" width="12.486328" height="9.049316" fill="none" customFrame="#000000">
	<g id="bxl-youtube">
		<path id="Shape" d="M11.133 0.282232C11.6677 0.431418 12.0888 0.868643 12.2323 1.42276C12.4987 2.43413 12.4862 4.54276 12.4862 4.54276C12.4862 4.54276 12.4843 6.63976 12.226 7.65048C12.0807 8.20396 11.6577 8.64054 11.1236 8.78908C10.1467 9.05387 6.2381 9.04935 6.2381 9.04935C6.2381 9.04935 2.34015 9.04482 1.35318 8.76712C0.817899 8.61793 0.396785 8.18071 0.253294 7.62723C-0.00249366 6.6262 9.13087e-07 4.51822 9.13087e-07 4.51822C9.13087e-07 4.51822 0.00249733 2.42057 0.260157 1.4092C0.404895 0.855727 0.837862 0.408814 1.36192 0.260919C2.33952 -0.00451589 6.24746 4.90561e-06 6.24746 4.90561e-06C6.24746 4.90561e-06 10.156 0.00452572 11.133 0.282232ZM5.00048 2.58651L4.99736 6.46148L8.24899 4.52722L5.00048 2.58651Z" fill="rgb(255,255,255)" fill-rule="evenodd" />
	</g>
</svg>
