<svg viewBox="0 0 28.4097 28.4097" xmlns="http://www.w3.org/2000/svg" xmlns:xlink="http://www.w3.org/1999/xlink" width="28.409668" height="28.409668" fill="none" customFrame="#000000">
	<path id="Vector.svg" d="M28.4098 14.2049C28.4098 22.05 22.05 28.4098 14.2049 28.4098C6.35974 28.4098 0 22.05 0 14.2049C0 6.35974 6.35974 0 14.2049 0C22.05 0 28.4098 6.35974 28.4098 14.2049Z" fill="rgb(255,255,255)" fill-rule="nonzero" />
	<path id="Vector.svg" d="M24.1483 14.205C24.1483 19.6966 19.6965 24.1485 14.2049 24.1485C8.7133 24.1485 4.26148 19.6966 4.26148 14.205C4.26148 8.71345 8.7133 4.26163 14.2049 4.26163C19.6965 4.26163 24.1483 8.71345 24.1483 14.205Z" fill="rgb(255,255,255)" fill-rule="evenodd" />
	<path id="Vector.svg" d="M24.1483 14.205C24.1483 19.6966 19.6965 24.1485 14.2049 24.1485C8.7133 24.1485 4.26148 19.6966 4.26148 14.205C4.26148 8.71345 8.7133 4.26163 14.2049 4.26163C19.6965 4.26163 24.1483 8.71345 24.1483 14.205Z" fill="rgb(255,113,20)" fill-rule="evenodd" />
	<path id="Vector.svg" d="M19.1766 14.9151L14.9151 14.9151L14.9151 19.1766L13.4946 19.1766L13.4946 14.9151L9.23316 14.9151L9.23316 13.4946L13.4946 13.4946L13.4946 9.23317L14.9151 9.23317L14.9151 13.4946L19.1766 13.4946L19.1766 14.9151Z" fill="rgb(255,255,255)" fill-rule="nonzero" />
	<path id="Vector.svg" d="M19.1766 14.9151L14.9151 14.9151L14.9151 19.1766L13.4946 19.1766L13.4946 14.9151L9.23316 14.9151L9.23316 13.4946L13.4946 13.4946L13.4946 9.23317L14.9151 9.23317L14.9151 13.4946L19.1766 13.4946L19.1766 14.9151Z" fill="rgb(255,255,255)" fill-rule="nonzero" />
</svg>
