<svg viewBox="0 0 156 18.6875" xmlns="http://www.w3.org/2000/svg" xmlns:xlink="http://www.w3.org/1999/xlink" width="156.000000" height="18.687500" fill="none" customFrame="#000000">
	<rect id="HOUSEDECOR" width="156.000000" height="18.687500" x="0.000000" y="0.000000" fill="rgb(255,255,255)" fill-opacity="0" />
	<path id="HOUSEDECOR" d="M132.167 0C137.053 0 141.077 3.51022 141.077 9.21748C141.077 14.8995 137.053 18.435 132.167 18.435C127.28 18.435 123.256 14.8995 123.256 9.21748C123.256 3.51022 127.28 0 132.167 0ZM120.527 15.6571C121.293 14.9753 121.868 14.2682 122.06 13.7883L122.204 13.4348C122.132 13.6621 122.108 13.9399 121.533 14.9753C121.27 15.4803 120.934 15.9349 120.575 16.3642C119.808 17.1723 118.419 18.1067 116.838 18.334C114.012 18.738 111.449 17.8036 109.82 16.0864C108.191 14.3692 107.257 12.0206 107.185 9.64679C107.183 9.54562 107.181 9.44498 107.181 9.34489C107.181 6.59689 108.126 4.26508 109.628 2.80312C111.161 1.28792 113.149 0.404055 115.377 0.22728C116.455 0.151521 117.509 0.202027 118.563 0.429308C119.736 0.681841 120.862 1.18691 121.27 1.48995C121.533 1.66672 121.94 1.96976 122.323 2.29806L120.695 3.86377C119.88 2.70211 118.898 1.81824 117.7 1.23742C115.784 0.303041 114.036 0.353547 112.359 1.38894C111.353 2.02027 110.562 3.03041 110.059 4.39409C109.653 5.51592 109.45 6.73659 109.45 8.06942C109.45 8.38676 109.462 8.71047 109.485 9.04071C109.652 11.364 110.419 13.2328 111.808 14.647C113.197 16.0864 114.874 16.7935 116.814 16.8187C118.371 16.8187 119.76 16.2884 120.527 15.6571ZM23.2233 18.5865C22.0895 18.5865 21.0236 18.3508 20.0255 17.8794Q19.506 17.6296 19.0296 17.3144L19.0296 17.3144Q18.1336 16.7214 17.3907 15.897Q17.2048 15.6906 17.0319 15.4738Q16.1472 14.364 15.6062 12.9802Q15.552 12.8404 15.5023 12.6991L15.5022 12.6988Q14.9595 11.1545 14.9595 9.41951Q14.9595 7.61084 15.5492 6.02094L15.5494 6.02055Q15.5771 5.94574 15.6062 5.87141Q16.1754 4.4046 17.1248 3.25073Q17.2542 3.09347 17.3907 2.94202Q18.1515 2.09773 19.0729 1.50183Q19.5295 1.20655 20.0255 0.972255C21.0236 0.492441 22.0895 0.252534 23.2233 0.252534Q24.3435 0.252534 25.3714 0.560428Q25.9151 0.723276 26.433 0.972255Q26.929 1.20654 27.3856 1.50182L27.3857 1.50184Q28.3071 2.09774 29.0678 2.94202C29.8263 3.7838 30.4172 4.76026 30.8404 5.87141C31.2715 6.97414 31.4871 8.15684 31.4871 9.41951C31.4871 10.6822 31.2715 11.8691 30.8404 12.9802C30.4172 14.083 29.8263 15.0552 29.0678 15.897Q28.325 16.7214 27.4289 17.3144L27.4289 17.3144Q26.9526 17.6296 26.433 17.8794Q25.9475 18.1087 25.4393 18.2637L25.4391 18.2637Q24.3804 18.5865 23.2233 18.5865ZM55.824 18.5865C54.9058 18.5865 54.0235 18.435 53.1772 18.1319C52.3308 17.8289 51.5923 17.3954 50.9615 16.8314C50.3308 16.259 49.8797 15.5813 49.6082 14.7985L51.9436 13.8767C52.0793 14.2808 52.3388 14.6427 52.7221 14.9626C53.1133 15.2741 53.5764 15.5182 54.1114 15.695C54.6543 15.8717 55.2252 15.9601 55.824 15.9601Q56.7243 15.9601 57.5188 15.6703L57.5255 15.6678Q57.5732 15.6504 57.6205 15.6318C58.1874 15.413 58.6425 15.1099 58.9858 14.7227C59.3371 14.3355 59.5128 13.8809 59.5128 13.359C59.5128 12.8203 59.3292 12.3784 58.9619 12.0332C58.6026 11.6881 58.1395 11.4145 57.5726 11.2125C57.0137 11.0105 56.4308 10.859 55.824 10.7579Q54.0635 10.4549 52.6622 9.87407C51.736 9.48685 51.0015 8.9439 50.4585 8.24523C49.9236 7.54655 49.6561 6.63743 49.6561 5.51786C49.6561 4.46564 49.9395 3.5481 50.5064 2.76524C51.0813 1.98239 51.8358 1.37631 52.77 0.947002C53.7121 0.509277 54.7302 0.290414 55.824 0.290414Q56.6371 0.290414 57.4157 0.454502L57.416 0.454581Q57.9331 0.563588 58.4349 0.744975C59.2812 1.0396 60.0238 1.47311 60.6625 2.04552C61.3093 2.60952 61.7724 3.29557 62.0518 4.10367L59.6924 5.00017C59.5567 4.5877 59.2972 4.22994 58.914 3.9269C58.5307 3.61544 58.0676 3.37133 57.5247 3.19455Q56.7223 2.92939 55.824 2.92939C55.1853 2.92097 54.5864 3.03041 54.0275 3.25769C53.4766 3.47655 53.0255 3.77959 52.6742 4.16681C52.3229 4.55403 52.1472 5.00438 52.1472 5.51786C52.1472 6.1492 52.3109 6.62901 52.6382 6.95731C52.9656 7.2856 53.4047 7.52972 53.9557 7.68965C54.5146 7.84117 55.1374 7.98007 55.824 8.10633Q57.4768 8.38412 58.878 9.02808C59.8202 9.45739 60.5747 10.0298 61.1416 10.7453C61.7165 11.4524 62.0039 12.3236 62.0039 13.359C62.0039 14.4028 61.7165 15.3204 61.1416 16.1117C60.5747 16.8945 59.8202 17.5048 58.878 17.9425C57.9439 18.3718 56.9259 18.5865 55.824 18.5865ZM133.125 18.0309C136.694 18.0309 139.041 15.0005 139.041 10.6064C139.041 5.45473 135.76 0.404055 131.209 0.404055C127.64 0.404055 125.292 3.43446 125.292 7.77804C125.292 12.955 128.574 18.0309 133.125 18.0309ZM83.9083 0.555575C89.4175 0.555575 92.747 3.61123 92.747 8.86394C92.747 14.7985 88.4594 18.0814 83.4292 18.0814L76.6984 18.0814L76.6984 18.0309C77.5607 17.9552 78.2074 17.1976 78.2074 16.2632L78.2074 2.34856C78.2074 1.43944 77.5607 0.681841 76.6984 0.580828L76.6984 0.555575L83.9083 0.555575ZM100.847 17.8541C103.17 17.8541 105.278 16.4905 106.332 14.3439L105.494 18.6875L104.703 18.0814L93.517 18.0814L93.517 18.0309C94.3554 17.9552 95.0261 17.1975 95.0261 16.2884L95.0261 2.34856C95.0261 1.43944 94.3554 0.681841 93.517 0.580828L93.517 0.555575L105.613 0.555575L106.332 4.29307C105.278 2.12128 103.17 0.757602 100.847 0.757602L96.9663 0.757602L96.9663 9.21748L100.871 9.21748C102.02 9.21748 103.05 8.45988 103.482 7.34873L103.529 7.34873L103.529 11.2883L103.482 11.2883C103.05 10.1519 102.02 9.41951 100.871 9.41951L96.9663 9.41951L96.9663 17.8541L100.847 17.8541ZM145.461 11.0105C147.952 13.7378 151.449 15.4298 155.329 15.4298C155.545 15.4298 155.784 15.4298 156 15.4046L153.509 17.8036C149.868 16.9955 146.85 14.4197 145.293 10.96L145.269 10.96L145.269 16.2884C145.293 17.1975 145.94 17.9552 146.802 18.0309L146.802 18.0814L141.82 18.0814L141.82 18.0309C142.658 17.9552 143.329 17.1975 143.329 16.2884L143.329 2.32331C143.329 1.41419 142.658 0.681841 141.82 0.580828L141.82 0.555575L149.748 0.555575C153.317 0.555575 156 2.17179 156 5.40422C156 8.9397 153.197 11.6671 148.886 11.5408C147.233 11.4903 145.988 11.162 145.461 11.0105ZM10.0723 0.580828L12.5634 0.580828L12.5634 18.2582L10.0723 18.2582L10.0723 10.1014L2.49112 10.1014L2.49112 18.2582L0 18.2582L0 0.580828L2.49112 0.580828L2.49112 7.475L10.0723 7.475L10.0723 0.580828ZM40.3424 18.5865C39.0011 18.5865 37.8314 18.2414 36.8333 17.5511Q36.4419 17.2782 36.0963 16.9562Q35.1304 16.0565 34.5218 14.7732C33.9789 13.6032 33.7074 12.3068 33.7074 10.8842L33.7074 0.580828L36.1986 0.580828L36.1986 10.8842Q36.1986 12.2731 36.6776 13.4348C37.005 14.2008 37.4761 14.8153 38.0909 15.2783C38.7136 15.7329 39.4642 15.9601 40.3424 15.9601C41.2447 15.9601 42.0032 15.7329 42.618 15.2783C43.2328 14.8153 43.6959 14.2008 44.0073 13.4348Q44.4863 12.2731 44.4863 10.8842L44.4863 0.580828L46.9775 0.580828L46.9775 10.8842C46.9775 11.9533 46.8218 12.955 46.5104 13.8894C46.199 14.8153 45.7519 15.6318 45.169 16.3389C44.5861 17.046 43.8875 17.5974 43.0731 17.993C42.2587 18.3887 41.3485 18.5865 40.3424 18.5865ZM64.7716 18.2582L64.7716 0.580828L75.1792 0.580828L75.1792 3.20718L67.2627 3.20718L67.2627 7.475L73.6343 7.475L73.6343 10.1014L67.2627 10.1014L67.2627 15.6318L75.1792 15.6318L75.1792 18.2582L64.7716 18.2582ZM83.6687 17.7026C87.8605 17.7026 90.5433 15.9854 90.5433 10.0508C90.5433 4.79814 88.4115 0.782855 82.9501 0.782855L80.1476 0.782855L80.1476 16.8693C81.0099 17.3491 82.2076 17.7026 83.6687 17.7026ZM148.503 0.808108L145.269 0.808108L145.269 10.8084C146.083 11.0105 147.377 11.2125 147.425 11.2125L147.545 11.2125C147.569 11.2125 147.616 11.2378 147.64 11.2378C148.024 11.263 148.407 11.2883 148.766 11.3135L149.03 11.3135C152.479 11.3135 153.868 9.19223 153.868 6.28809C153.868 3.58598 153.197 0.808108 148.503 0.808108ZM23.2233 15.9601C24.0217 15.9601 24.7683 15.7876 25.4629 15.4424C26.1575 15.0973 26.7683 14.6259 27.2953 14.0283C27.8303 13.4222 28.2454 12.7277 28.5409 11.9448C28.8443 11.1536 28.996 10.3118 28.996 9.41951C28.996 8.52722 28.8443 7.68544 28.5409 6.89417C28.2454 6.1029 27.8303 5.40843 27.2953 4.81077C26.7683 4.20469 26.1575 3.73329 25.4629 3.39658Q25.0858 3.20921 24.6883 3.08965Q23.9875 2.87889 23.2233 2.87889Q22.4591 2.87889 21.7583 3.08965Q21.3608 3.20921 20.9837 3.39658C20.289 3.74171 19.6742 4.21731 19.1393 4.8234C18.6123 5.42106 18.1971 6.11553 17.8937 6.9068Q17.8866 6.92578 17.8795 6.94481Q17.4506 8.10273 17.4506 9.41951Q17.4506 10.7612 17.8876 11.9411Q17.8907 11.9493 17.8937 11.9575C18.1971 12.7403 18.6123 13.4348 19.1393 14.0409C19.6742 14.6385 20.289 15.1099 20.9837 15.4551Q21.3301 15.623 21.6936 15.7351Q22.4238 15.9601 23.2233 15.9601Z" fill="rgb(255,255,255)" fill-rule="evenodd" />
</svg>
