<svg width="19" height="19" viewBox="0 0 19 19" fill="none" xmlns="http://www.w3.org/2000/svg">
<path d="M18.2634 9.13171C18.2634 14.175 14.175 18.2634 9.13171 18.2634C4.0884 18.2634 0 14.175 0 9.13171C0 4.0884 4.0884 0 9.13171 0C14.175 0 18.2634 4.0884 18.2634 9.13171Z" fill="white"/>
<path d="M15.5239 9.13182C15.5239 12.6621 12.662 15.524 9.13172 15.524C5.60141 15.524 2.73952 12.6621 2.73952 9.13182C2.73952 5.6015 5.60141 2.73962 9.13172 2.73962C12.662 2.73962 15.5239 5.6015 15.5239 9.13182Z" fill="#FF7114"/>
<path d="M12.3278 9.58829H9.58829V12.3278H8.67512V9.58829H5.93561V8.67512H8.67512V5.93561H9.58829V8.67512H12.3278V9.58829Z" fill="white"/>
</svg>
