<svg viewBox="0 0 24 24" xmlns="http://www.w3.org/2000/svg" xmlns:xlink="http://www.w3.org/1999/xlink" width="24.000000" height="24.000000" fill="none" customFrame="#000000">
	<rect id="Cart" width="24.000000" height="24.000000" x="0.000000" y="0.000000" />
	<g id="Group 11.svg">
		<circle id="Ellipse 6" cx="12" cy="12" r="12" fill="rgb(242,242,242)" />
		<path id="Vector" d="M10.0802 14.8799C9.55219 14.8799 9.125 15.3119 9.125 15.8399C9.125 16.368 9.55219 16.7999 10.0802 16.7999C10.6082 16.7999 11.0402 16.368 11.0402 15.8399C11.0402 15.3119 10.6082 14.8799 10.0802 14.8799ZM7.2002 7.19995L7.2002 8.15995L8.1602 8.15995L9.8882 11.8032L9.2402 12.9792C9.16339 13.1136 9.1202 13.272 9.1202 13.44C9.1202 13.968 9.55219 14.4 10.0802 14.4L15.8402 14.4L15.8402 13.44L10.2818 13.44C10.2146 13.44 10.1618 13.3871 10.1618 13.32L10.1762 13.2624L10.6082 12.4799L14.1842 12.4799C14.5442 12.4799 14.861 12.2831 15.0242 11.9855L16.7426 8.87035C16.781 8.80315 16.8002 8.72155 16.8002 8.63995C16.8002 8.37595 16.5842 8.15995 16.3202 8.15995L9.22099 8.15995L8.7698 7.19995L7.2002 7.19995ZM14.8802 14.8799C14.3522 14.8799 13.925 15.3119 13.925 15.8399C13.925 16.368 14.3522 16.7999 14.8802 16.7999C15.4082 16.7999 15.8402 16.368 15.8402 15.8399C15.8402 15.3119 15.4082 14.8799 14.8802 14.8799Z" fill="rgb(162,162,162)" fill-rule="nonzero" />
	</g>
</svg>
